REM DIRINDEX 1\2,1\3
REM DIRNAME folder01,folder02,folder03
TITLE ""
FILE "DISC1Track36.mp3" MP3
  TRACK 01 AUDIO
    TITLE "0:"
    INDEX 01 00:00:00
  TRACK 02 AUDIO
    TITLE "3:cjc133_1612"
    INDEX 01 00:00:15
  TRACK 03 AUDIO
    TITLE "0:"
    INDEX 01 00:01:56
  TRACK 04 AUDIO
    TITLE "2:cjc133_1613"
    INDEX 01 00:02:32
  TRACK 05 AUDIO
    TITLE "2:cjc133_1614"
    INDEX 01 00:06:26
  TRACK 06 AUDIO
    TITLE "2:cjc133_1615"
    INDEX 01 00:10:59
  TRACK 07 AUDIO
    TITLE "0:"
    INDEX 01 00:14:23
  TRACK 08 AUDIO
    TITLE "2:cjc133_1616"
    INDEX 01 00:14:62
  TRACK 09 AUDIO
    TITLE "2:cjc133_1617"
    INDEX 01 00:16:02
  TRACK 10 AUDIO
    TITLE "2:cjc133_1618"
    INDEX 01 00:20:65
  TRACK 11 AUDIO
    TITLE "0:"
    INDEX 01 00:24:59
  TRACK 12 AUDIO
    TITLE "2:cjc133_1619"
    INDEX 01 00:25:35
  TRACK 13 AUDIO
    TITLE "2:cjc133_1620"
    INDEX 01 00:26:58
  TRACK 14 AUDIO
    TITLE "2:cjc133_1621"
    INDEX 01 00:31:43
  TRACK 15 AUDIO
    TITLE "0:"
    INDEX 01 00:35:33
  TRACK 16 AUDIO
    TITLE "2:cjc133_1622"
    INDEX 01 00:36:11
  TRACK 17 AUDIO
    TITLE "2:cjc133_1623"
    INDEX 01 00:39:19
  TRACK 18 AUDIO
    TITLE "2:cjc133_1624"
    INDEX 01 00:43:62
  TRACK 19 AUDIO
    TITLE "0:"
    INDEX 01 00:47:38
  TRACK 20 AUDIO
    TITLE "2:cjc133_1625"
    INDEX 01 00:48:10
  TRACK 21 AUDIO
    TITLE "2:cjc133_1626"
    INDEX 01 00:49:59
  TRACK 22 AUDIO
    TITLE "2:cjc133_1627"
    INDEX 01 00:54:44
  TRACK 23 AUDIO
    TITLE "0:"
    INDEX 01 00:58:36
  TRACK 24 AUDIO
    TITLE "2:cjc133_1628"
    INDEX 01 00:59:12
  TRACK 25 AUDIO
    TITLE "2:cjc133_1629"
    INDEX 01 01:00:06
  TRACK 26 AUDIO
    TITLE "2:cjc133_1630"
    INDEX 01 01:05:15
  TRACK 27 AUDIO
    TITLE "0:"
    INDEX 01 01:09:32
  TRACK 28 AUDIO
    TITLE "2:cjc133_1631"
    INDEX 01 01:10:12
  TRACK 29 AUDIO
    TITLE "2:cjc133_1632"
    INDEX 01 01:13:59
  TRACK 30 AUDIO
    TITLE "2:cjc133_1633"
    INDEX 01 01:17:14
  TRACK 31 AUDIO
    TITLE "0:"
    INDEX 01 01:19:50
  TRACK 32 AUDIO
    TITLE "2:cjc133_1634"
    INDEX 01 01:20:28
  TRACK 33 AUDIO
    TITLE "2:cjc133_1635"
    INDEX 01 01:21:74
  TRACK 34 AUDIO
    TITLE "2:cjc133_1636"
    INDEX 01 01:25:23
  TRACK 35 AUDIO
    TITLE "0:"
    INDEX 01 01:27:59
  TRACK 36 AUDIO
    TITLE "2:cjc133_1637"
    INDEX 01 01:28:29
  TRACK 37 AUDIO
    TITLE "2:cjc133_1638"
    INDEX 01 01:30:50
  TRACK 38 AUDIO
    TITLE "2:cjc133_1639"
    INDEX 01 01:33:64
  TRACK 39 AUDIO
    TITLE "0:"
    INDEX 01 01:36:09
  TRACK 40 AUDIO
    TITLE "2:cjc133_1640"
    INDEX 01 01:36:60
  TRACK 41 AUDIO
    TITLE "2:cjc133_1641"
    INDEX 01 01:37:68
  TRACK 42 AUDIO
    TITLE "2:cjc133_1642"
    INDEX 01 01:40:72
  TRACK 43 AUDIO
    TITLE "0:"
    INDEX 01 01:43:05
  TRACK 44 AUDIO
    TITLE "2:cjc133_1643"
    INDEX 01 01:43:56
  TRACK 45 AUDIO
    TITLE "2:cjc133_1644"
    INDEX 01 01:45:69
  TRACK 46 AUDIO
    TITLE "2:cjc133_1645"
    INDEX 01 01:48:56
  TRACK 47 AUDIO
    TITLE "0:"
    INDEX 01 01:50:53
  TRACK 48 AUDIO
    TITLE "2:cjc133_1646"
    INDEX 01 01:51:27
  TRACK 49 AUDIO
    TITLE "2:cjc133_1647"
    INDEX 01 01:53:31
  TRACK 50 AUDIO
    TITLE "2:cjc133_1648"
    INDEX 01 01:56:12
  TRACK 51 AUDIO
    TITLE "0:"
    INDEX 01 01:58:05
  TRACK 52 AUDIO
    TITLE "2:cjc133_1649"
    INDEX 01 01:58:58
  TRACK 53 AUDIO
    TITLE "2:cjc133_1650"
    INDEX 01 02:00:39
  TRACK 54 AUDIO
    TITLE "2:cjc133_1651"
    INDEX 01 02:03:06
  TRACK 55 AUDIO
    TITLE "0:"
    INDEX 01 02:04:66
  TRACK 56 AUDIO
    TITLE "2:cjc133_1652"
    INDEX 01 02:05:33
  TRACK 57 AUDIO
    TITLE "2:cjc133_1653"
    INDEX 01 02:07:02
  TRACK 58 AUDIO
    TITLE "2:cjc133_1654"
    INDEX 01 02:09:50
  TRACK 59 AUDIO
    TITLE "0:"
    INDEX 01 02:11:37
  TRACK 60 AUDIO
    TITLE "2:cjc133_1655"
    INDEX 01 02:12:09
  TRACK 61 AUDIO
    TITLE "2:cjc133_1656"
    INDEX 01 02:13:18
  TRACK 62 AUDIO
    TITLE "2:cjc133_1657"
    INDEX 01 02:15:52
  TRACK 63 AUDIO
    TITLE "0:"
    INDEX 01 02:17:26
